<svg width="61" height="58" viewBox="0 0 61 58" fill="none" xmlns="http://www.w3.org/2000/svg">
<path d="M43.5353 0.00938593C42.0543 0.00938593 40.512 0.290598 38.9609 0.853204C37.4624 1.40643 36.0428 2.15659 34.7459 3.09427C33.5103 3.97568 32.4587 4.81025 31.5736 5.58852C31.1004 5.99172 30.6535 6.42303 30.2153 6.85436C29.7772 6.42303 29.3215 5.99173 28.8658 5.59791C27.9807 4.81026 26.9204 3.97568 25.6936 3.09427C24.3966 2.15659 22.977 1.39706 21.4697 0.853204C19.9186 0.290598 18.3851 0.00938593 16.8953 0.00938593C11.7076 0.00938593 7.54505 1.64089 4.53053 4.87588C1.52477 8.11087 0 12.5836 0 18.1722C0 19.9163 0.27166 21.726 0.823738 23.5451C1.35829 25.3173 1.98047 26.8551 2.68152 28.1303C3.35628 29.3587 4.12744 30.5776 4.97746 31.7404C5.82749 32.9031 6.44967 33.7188 6.84402 34.1502C7.28217 34.6471 7.62394 35.0035 7.75539 35.1066L27.6214 56.1388C28.3137 56.9077 29.2251 57.3202 30.2241 57.3202C31.2231 57.3202 32.1169 56.917 32.8092 56.1762L52.6753 35.1535C57.8368 29.4993 60.4569 23.7795 60.4569 18.1628C60.4569 12.5461 58.9322 8.10148 55.9176 4.86649C52.9119 1.6315 48.7406 0 43.5441 0L43.5353 0.00938593Z" fill="#F5565C"/>
</svg>
