<svg width="104" height="39" viewBox="0 0 104 39" fill="none" xmlns="http://www.w3.org/2000/svg">
<path d="M41.5357 28.2534V19.5261H42.5925V27.3159H46.6493V28.2534H41.5357ZM48.1493 28.2534V21.708H49.155V28.2534H48.1493ZM48.6607 20.6171C48.4647 20.6171 48.2956 20.5503 48.1536 20.4168C48.0144 20.2832 47.9448 20.1227 47.9448 19.9352C47.9448 19.7477 48.0144 19.5872 48.1536 19.4537C48.2956 19.3202 48.4647 19.2534 48.6607 19.2534C48.8567 19.2534 49.0243 19.3202 49.1635 19.4537C49.3056 19.5872 49.3766 19.7477 49.3766 19.9352C49.3766 20.1227 49.3056 20.2832 49.1635 20.4168C49.0243 20.5503 48.8567 20.6171 48.6607 20.6171ZM51.9345 25.8671L51.9174 24.6227H52.122L54.9856 21.708H56.2299L53.1788 24.7932H53.0936L51.9345 25.8671ZM50.997 28.2534V19.5261H52.0027V28.2534H50.997ZM55.1561 28.2534L52.5993 25.0148L53.3152 24.3159L56.4345 28.2534H55.1561ZM59.9991 28.3898C59.3684 28.3898 58.8244 28.2506 58.367 27.9722C57.9125 27.6909 57.5616 27.2989 57.3145 26.796C57.0701 26.2903 56.948 25.7023 56.948 25.0318C56.948 24.3614 57.0701 23.7705 57.3145 23.2591C57.5616 22.7449 57.9054 22.3443 58.3457 22.0574C58.7889 21.7676 59.3059 21.6227 59.8969 21.6227C60.2378 21.6227 60.5744 21.6796 60.9068 21.7932C61.2392 21.9068 61.5417 22.0915 61.8145 22.3472C62.0872 22.6 62.3045 22.9352 62.4665 23.3528C62.6284 23.7705 62.7094 24.2847 62.7094 24.8955V25.3216H57.6639V24.4523H61.6866C61.6866 24.083 61.6128 23.7534 61.465 23.4636C61.3201 23.1739 61.1128 22.9452 60.8429 22.7776C60.5758 22.61 60.2605 22.5261 59.8969 22.5261C59.4963 22.5261 59.1497 22.6256 58.8571 22.8244C58.5673 23.0205 58.3443 23.2761 58.188 23.5915C58.0318 23.9068 57.9537 24.2449 57.9537 24.6057V25.1852C57.9537 25.6796 58.0389 26.0986 58.2094 26.4423C58.3826 26.7832 58.6227 27.0432 58.9295 27.2222C59.2363 27.3983 59.5929 27.4864 59.9991 27.4864C60.2633 27.4864 60.502 27.4494 60.715 27.3756C60.9309 27.2989 61.117 27.1852 61.2733 27.0347C61.4295 26.8813 61.5503 26.6909 61.6355 26.4636L62.6071 26.7364C62.5048 27.0659 62.3329 27.3557 62.0915 27.6057C61.85 27.8528 61.5517 28.046 61.1966 28.1852C60.8415 28.3216 60.4423 28.3898 59.9991 28.3898ZM68.8755 23.1739L67.9721 23.4296C67.9153 23.279 67.8315 23.1327 67.7207 22.9906C67.6128 22.8457 67.465 22.7264 67.2775 22.6327C67.09 22.5389 66.85 22.4921 66.5574 22.4921C66.1568 22.4921 65.823 22.5844 65.5559 22.769C65.2917 22.9509 65.1596 23.1824 65.1596 23.4636C65.1596 23.7136 65.2505 23.9111 65.4324 24.056C65.6142 24.2009 65.8983 24.3216 66.2846 24.4182L67.2562 24.6568C67.8415 24.7989 68.2775 25.0162 68.5645 25.3088C68.8514 25.5986 68.9949 25.9722 68.9949 26.4296C68.9949 26.8046 68.8869 27.1398 68.671 27.4352C68.4579 27.7307 68.1596 27.9636 67.7761 28.1341C67.3926 28.3046 66.9466 28.3898 66.438 28.3898C65.7704 28.3898 65.2179 28.2449 64.7804 27.9551C64.3429 27.6653 64.0659 27.2421 63.9494 26.6852L64.904 26.4466C64.9949 26.7989 65.1667 27.0631 65.4196 27.2392C65.6753 27.4153 66.0091 27.5034 66.421 27.5034C66.8897 27.5034 67.2619 27.404 67.5375 27.2051C67.8159 27.0034 67.9551 26.7619 67.9551 26.4807C67.9551 26.2534 67.8755 26.0631 67.7165 25.9097C67.5574 25.7534 67.313 25.6369 66.9835 25.5602L65.8926 25.3046C65.2932 25.1625 64.8528 24.9423 64.5716 24.644C64.2932 24.3429 64.154 23.9665 64.154 23.5148C64.154 23.1455 64.2576 22.8188 64.465 22.5347C64.6753 22.2506 64.9608 22.0276 65.3216 21.8656C65.6852 21.7037 66.0971 21.6227 66.5574 21.6227C67.2051 21.6227 67.7136 21.7648 68.0829 22.0489C68.4551 22.333 68.7193 22.708 68.8755 23.1739Z" fill="#2A2A2A"/>
<path d="M36.2059 2.76833C34.3782 0.978592 31.8626 0.0788574 28.6396 0.0788574C27.7552 0.0788574 26.8512 0.233636 25.9177 0.552887C24.994 0.852789 24.1293 1.28806 23.3334 1.81047C22.5276 2.33288 21.8496 2.83598 21.2797 3.30034C20.7098 3.76471 20.1595 4.25812 19.6485 4.78053C19.1277 4.25812 18.5873 3.76471 18.0075 3.30034C17.4376 2.83598 16.7497 2.33288 15.9538 1.81047C15.1579 1.28806 14.2932 0.852789 13.3695 0.552887C12.436 0.24331 11.532 0.0788574 10.6476 0.0788574C7.43439 0.0788574 4.91885 0.978592 3.10098 2.76833C1.27328 4.57742 0.369263 7.06369 0.369263 10.2562C0.369263 11.2236 0.526494 12.22 0.870415 13.2552C1.20451 14.2903 1.58772 15.1513 2.02008 15.8769C2.46226 16.6024 2.94375 17.3087 3.49403 18.0053C4.03448 18.7018 4.43736 19.1662 4.69284 19.4371C4.9385 19.6886 5.13503 19.882 5.28243 19.9981L18.7052 33.0777C18.9607 33.3486 19.2751 33.4744 19.6584 33.4744C20.0416 33.4744 20.3462 33.3486 20.6115 33.0777L34.0146 20.0465C37.3064 16.7186 38.9474 13.4584 38.9474 10.2562C38.9474 7.05402 38.0336 4.57742 36.2157 2.76833H36.2059Z" fill="#2A2A2A"/>
</svg>
