<svg width="92" height="81" viewBox="0 0 92 81" fill="none" xmlns="http://www.w3.org/2000/svg">
<path d="M45.9733 81C70.9367 81 91.1735 62.8675 91.1735 40.5C91.1735 18.1325 70.9367 0 45.9733 0C21.0099 0 0.773071 18.1325 0.773071 40.5C0.773071 62.8675 21.0099 81 45.9733 81Z" fill="white"/>
<path d="M66.0645 34.3933C72.6054 34.3933 77.9078 29.6423 77.9078 23.7816C77.9078 17.9208 72.6054 13.1697 66.0645 13.1697C59.5236 13.1697 54.2212 17.9208 54.2212 23.7816C54.2212 29.6423 59.5236 34.3933 66.0645 34.3933Z" fill="#D5E2DD"/>
<path d="M45.8118 57.6134C47.0557 50.7774 41.8792 44.3321 34.2498 43.2175C26.6204 42.103 19.4272 46.7412 18.1833 53.5773C16.9394 60.4133 22.1158 66.8586 29.7452 67.9731C37.3746 69.0877 44.5679 64.4495 45.8118 57.6134Z" fill="#D5E2DD"/>
<path d="M65.5902 65.5383C70.8109 65.5383 75.0431 61.7462 75.0431 57.0684C75.0431 52.3906 70.8109 48.5984 65.5902 48.5984C60.3695 48.5984 56.1372 52.3906 56.1372 57.0684C56.1372 61.7462 60.3695 65.5383 65.5902 65.5383Z" fill="#D5E2DD"/>
<path d="M52.7097 44.5537C55.121 44.5537 57.0757 42.8022 57.0757 40.6417C57.0757 38.4812 55.121 36.7297 52.7097 36.7297C50.2985 36.7297 48.3438 38.4812 48.3438 40.6417C48.3438 42.8022 50.2985 44.5537 52.7097 44.5537Z" fill="#D5E2DD"/>
<path d="M39.0586 25.7772C40.2534 21.2235 37.1021 16.6642 32.02 15.5936C26.9379 14.5231 21.8493 17.3466 20.6545 21.9003C19.4597 26.454 22.611 31.0134 27.6932 32.084C32.7753 33.1545 37.8638 30.3308 39.0586 25.7772Z" fill="#D5E2DD"/>
</svg>
