<svg width="180" height="121" viewBox="0 0 180 121" fill="none" xmlns="http://www.w3.org/2000/svg">
<path d="M153.247 42.201C164.14 73.8787 144.845 107.587 110.195 117.53C75.4988 127.48 38.5953 109.896 27.7022 78.2187C16.8168 46.5619 36.0821 12.8328 70.7779 2.8829C105.474 -7.06697 142.362 10.5511 153.247 42.2079V42.201Z" fill="#7AA3FF"/>
<path d="M97.1246 70.5994C97.9266 72.9438 99.5613 74.8278 101.639 76.0907L91.0593 79.1259C83.8558 81.1912 79.853 88.2036 82.1141 94.7833C84.3752 101.363 92.0523 105.019 99.2558 102.954L148.282 88.8874C156.265 75.4627 158.671 59.3029 153.683 43.5408L104.534 57.6353C98.5759 59.3447 95.2607 65.143 97.1322 70.5924L97.1246 70.5994Z" fill="#3276ED"/>
<path d="M109.859 2.7853L88.5461 8.89756C84.3906 10.0907 82.076 14.1307 83.3822 17.9264C84.6885 21.7222 89.1114 23.8363 93.2669 22.6432L99.8746 20.7453C99.401 22.3222 99.401 24.0317 99.9739 25.7063C101.57 30.3603 107.002 32.9489 112.097 31.4836L142.056 22.8874C133.745 13.3073 122.455 6.33683 109.859 2.77832V2.7853Z" fill="#3276ED"/>
<path d="M69.0212 62.1914C68.1962 59.7982 66.6378 57.8026 64.6441 56.3373L74.5975 53.4836C80.5559 51.7741 83.8712 45.9758 81.9996 40.5264C80.1281 35.077 73.7802 32.0557 67.8142 33.7652L26.6559 45.5711C23.7837 55.9815 23.9212 67.2222 27.7024 78.2117C28.6191 80.8701 29.7267 83.4239 30.9948 85.88L60.2823 77.4791C67.3177 75.4626 71.2288 68.6177 69.0212 62.1914Z" fill="#3276ED"/>
<path d="M141.789 22.6013C144.295 25.4481 146.533 28.5322 148.465 31.8255C157.487 32.593 163.415 34.9375 164.774 38.8937C166.134 42.8499 162.743 47.8667 155.822 53.2045C144.234 62.1426 122.753 72.0018 97.071 79.37C71.3891 86.7382 47.594 89.8711 32.4919 88.5873C23.4704 87.8197 17.5502 85.4753 16.1905 81.5191C14.8308 77.5629 18.2225 72.5461 25.1433 67.2013C24.662 63.4893 24.5704 59.7912 24.8454 56.149C7.88705 66.5803 -1.37128 77.4233 1.48566 85.7335C4.3426 94.0437 18.719 98.1045 39.1606 97.8115C56.2565 97.5603 77.5995 94.26 99.9891 87.8407C122.379 81.4214 141.949 72.9856 156.135 64.2568C173.093 53.8255 182.344 42.9825 179.487 34.6723C176.63 26.3622 162.246 22.2943 141.804 22.5943L141.789 22.6013Z" fill="#373737"/>
</svg>
