<svg width="136" height="127" viewBox="0 0 136 127" fill="none" xmlns="http://www.w3.org/2000/svg">
<path d="M16.1657 91.7939L0 126.38L37.1614 111.334L16.1657 91.7939Z" fill="#F87E40"/>
<path d="M17.0542 97.1421L5.99963 120.796L31.4149 110.507L17.0542 97.1421Z" fill="#FCA84C"/>
<path d="M23.8522 104.18C25.3366 105.562 23.5879 109.429 19.9443 112.82C16.3007 116.211 12.1454 117.839 10.6609 116.457C9.1765 115.076 10.9309 111.209 14.5689 107.817C18.2125 104.426 22.3678 102.799 23.8522 104.18Z" fill="#EA493D"/>
<path d="M48.1429 46.0776C35.7727 47.2079 12.927 52.4986 3.74492 75.6498C2.76092 78.1356 5.25181 80.48 7.92829 79.5851L27.5464 73.0228C28.0525 72.8553 28.5136 72.578 28.8903 72.2169L50.6845 51.342C52.883 49.2383 51.2355 45.8002 48.1486 46.0828L48.1429 46.0776Z" fill="#4EB7B4"/>
<path d="M86.4908 81.7674C85.2763 93.2802 79.5916 114.542 54.7161 123.088C52.0452 124.004 49.5262 121.686 50.4877 119.195L57.5388 100.936C57.7187 100.465 58.0167 100.036 58.4046 99.6855L80.8342 79.402C83.0946 77.3559 86.7888 78.8892 86.4852 81.7621L86.4908 81.7674Z" fill="#4EB7B4"/>
<path d="M54.5248 103.302C121.701 69.9615 136 0.00537109 136 0.00537109C136 0.00537109 60.8337 13.3132 25.0105 75.8331L54.5248 103.302Z" fill="white"/>
<path d="M18.6792 88.3454L41.0751 109.189C45.7814 107.394 50.2515 105.416 54.5193 103.302L25.0049 75.833C22.7277 79.8049 20.6078 83.9653 18.6792 88.3454Z" fill="#4EB7B4"/>
<path d="M59.6361 76.5866C57.9155 78.1879 24.5607 106.761 22.9245 105.238C21.2882 103.715 51.9834 72.6723 53.7096 71.0709C55.4302 69.4696 58.1572 69.4015 59.7935 70.9244C61.4297 72.4472 61.3623 74.9852 59.6361 76.5866Z" fill="#3EBBDD"/>
<path d="M106.629 44.7661C111.801 39.9533 111.801 32.1502 106.629 27.3374C101.458 22.5246 93.0739 22.5246 87.9027 27.3374C82.7314 32.1502 82.7314 39.9533 87.9027 44.7661C93.0739 49.5789 101.458 49.5789 106.629 44.7661Z" fill="#333333"/>
<path d="M104.349 42.6447C100.436 46.2869 94.0929 46.2869 90.1794 42.6447C86.2659 39.0024 86.2659 33.0995 90.1794 29.4573C94.0929 25.815 100.436 25.815 104.349 29.4573C108.263 33.0995 108.263 39.0024 104.349 42.6447Z" fill="#4EB7B4"/>
<path d="M135.994 0.00523822C135.994 0.00523822 124.304 2.07758 107.948 8.41487L126.953 26.1027C133.762 10.8849 135.989 0 135.989 0L135.994 0.00523822Z" fill="#4EB7B4"/>
</svg>
