<svg width="56" height="58" viewBox="0 0 56 58" fill="none" xmlns="http://www.w3.org/2000/svg">
<path d="M51.3054 57.8344C51.1465 57.8344 50.9875 57.8149 50.8285 57.776L40.364 54.7526C36.5579 56.6872 32.4899 57.6594 28.2629 57.6594C12.9729 57.6594 0.535217 44.7198 0.535217 28.8345C0.535217 12.9493 12.9729 0 28.2629 0C43.5529 0 56 12.9299 56 28.8345C56 34.7842 54.2512 40.4714 50.9501 45.3614L53.0542 55.5789C53.1851 56.2205 52.9981 56.8817 52.5305 57.3289C52.2032 57.6594 51.7637 57.8247 51.3054 57.8247V57.8344ZM28.2629 3.71375C14.9461 3.71375 4.10753 14.9811 4.10753 28.8345C4.10753 42.6879 14.9368 53.936 28.2629 53.936C32.1439 53.936 35.8845 52.993 39.354 51.1167C39.7561 50.9028 40.2237 50.8542 40.6539 50.9708L48.9301 53.3623L47.2749 45.3322C47.1626 44.8072 47.2749 44.2532 47.5928 43.8254C50.7443 39.4409 52.4089 34.2495 52.4089 28.8345C52.4089 14.9811 41.5703 3.71375 28.2536 3.71375H28.2629Z" fill="#767676"/>
</svg>
